<svg width="195" height="85" viewBox="0 0 195 85" fill="none" xmlns="http://www.w3.org/2000/svg">
<path d="M9.30989 18.2872C17.57 8.1636 31.197 11.5014 36.978 14.4358C41.6566 16.8811 52.5141 19.4242 58.5156 10.0343C64.5171 0.644279 76.8266 0.375296 82.2312 1.41455C84.9469 1.75078 94.46 3.94544 110.787 10.0343C127.113 16.1231 141.413 15.5056 146.521 14.4358C158.083 13.0603 182.982 14.179 190.081 29.6578C197.179 45.1366 193.038 62.3944 190.081 69.0884C189.059 72.2673 183.337 79.5788 168.624 83.3934C153.91 87.2081 123.935 71.4114 110.787 63.0363C108.743 61.9664 102.653 60.1149 88.9717 59.1612C75.2909 58.2076 62.4951 67.6491 58.5156 71.5311C54.321 74.71 43.8184 78.6251 35.3647 78.6251C9.93908 78.1116 2.02314 55.9754 1.24338 44.9716C0.490503 40.2949 1.04978 28.4107 9.30989 18.2872Z" fill="#6600CC" stroke="black" stroke-width="0.168454"/>
<path d="M13.5248 22.2455C21.3923 13.7633 34.3717 16.56 39.8779 19.0186C44.3341 21.0674 54.6756 23.1982 60.3918 15.3307C66.1081 7.46319 77.8325 7.23781 82.9802 8.10857C85.5668 8.39028 94.6278 10.2291 110.178 15.3307C125.729 20.4323 139.349 19.915 144.215 19.0186C155.227 17.8661 178.942 18.8035 185.704 31.7726C192.465 44.7417 188.521 59.2013 185.704 64.81C184.73 67.4735 179.28 73.5995 165.266 76.7957C151.252 79.9919 122.702 66.7564 110.178 59.7391C108.232 58.8428 101.082 56.8503 88.0511 56.0512C75.0205 55.2522 64.1822 61.5575 60.3918 64.81C56.3966 67.4735 46.3932 72.8005 38.3413 72.8005C14.1241 72.3702 6.58437 53.8231 5.84167 44.6034C5.12458 40.685 5.65728 30.7277 13.5248 22.2455Z" fill="black"/>
<path d="M157.457 67.036C154.912 46.8646 159.914 33.2878 162.733 29.0208C189.343 29.0208 185.387 51.9851 184.533 55.2435C179.072 75.2287 164.207 71.4323 157.457 67.036Z" fill="#6600CC" stroke="black" stroke-width="0.775821"/>
<path d="M167.465 51.0541C166.922 46.5543 170.413 45.9336 170.724 45.8561C173.284 45.3906 173.594 47.5629 173.594 48.8042C173.718 54.2039 171.215 55.3469 169.948 55.2435C169.301 55.3469 167.9 54.6539 167.465 51.0541Z" fill="black" stroke="black" stroke-width="0.155164"/>
<path d="M138.682 31.8138C144.516 23.1246 155.647 26.7451 160.483 29.6415L156.681 44.6148C153.552 41.1237 147.263 36.6704 147.139 46.7871C147.015 56.9039 153.138 55.1919 156.216 53.0713V67.7343C144.113 71.0859 138.243 65.7172 136.82 62.6139C135.01 55.9677 132.848 40.503 138.682 31.8138Z" fill="#6600CC" stroke="black" stroke-width="0.775821"/>
<path d="M95.9542 49.526L95.2544 17.4719C104.974 18.3257 105.363 19.3346 110.184 21.1197C115.005 22.9048 114.694 25.9317 114.616 32.296C114.566 36.457 110.252 37.169 106.923 36.9231C108.591 37.3541 110.102 38.1792 110.806 38.6602C112.75 40.9628 115.861 46.6699 112.75 51.0783C109.64 55.4867 100.257 51.8803 95.9542 49.526Z" fill="#FFFF00" stroke="black" stroke-width="0.775821"/>
<path d="M117.037 56.0968C109.775 52.435 113.235 33.6756 115.873 24.7537C119.473 24.7537 122.183 26.8225 123.088 27.8569C121.304 34.0635 119.039 46.8335 124.252 48.261C130.769 50.0454 129.76 28.4 130.924 27.469C131.855 26.7242 136.898 27.1587 139.303 27.469C132.352 43.482 134.079 57.1571 135.812 61.9931C134.57 62.7379 130.898 62.3034 129.217 61.9931C128.183 61.5534 124.299 59.7587 117.037 56.0968Z" fill="#6600CC" stroke="black" stroke-width="0.775821"/>
<path d="M103.15 27.0036C103.895 25.2037 105.219 25.4261 105.788 25.7623C106.201 25.8399 106.827 26.5071 106.02 28.5553C105.213 30.6034 103.77 30.4431 103.15 30.1069C102.839 29.8224 102.405 28.8035 103.15 27.0036Z" fill="black" stroke="black" stroke-width="0.155164"/>
<path d="M101.909 43.839C101.722 41.7908 102.762 41.3822 103.305 41.434C103.487 41.434 104.701 41.2012 105.322 43.2959C105.819 44.9717 104.805 45.8044 104.236 46.0113C103.538 46.1406 102.095 45.8872 101.909 43.839Z" fill="black" stroke="black" stroke-width="0.155164"/>
<path d="M71.8841 28.0122C71.8841 30.262 72.815 50.8989 73.9788 52.8384C75.1426 54.778 81.8456 52.6057 83.2111 51.6747C84.5765 50.7437 82.1249 47.5629 82.668 43.6062C83.2111 39.6495 85.6937 40.9684 86.2368 43.0631C86.6712 44.7389 86.7799 48.2611 86.7799 49.8127C90.2555 52.2333 94.176 50.4593 95.7018 49.2697C95.5208 42.1838 95.0346 26.6157 94.5381 21.0298C94.0416 15.4439 90.2452 14.5129 88.4091 14.7456C86.4695 14.4612 81.2095 14.0629 75.6856 14.7456C68.7808 15.599 71.8841 25.7623 71.8841 28.0122Z" fill="#FFFF00" stroke="black" stroke-width="0.768312"/>
<path d="M80.1854 27.2363C79.4406 30.65 82.8749 31.8137 84.6852 31.9689C89.1849 31.9689 87.2454 30.8051 88.5643 28.788C89.6194 27.1743 88.7453 26.1502 88.1764 25.8399C85.823 24.883 80.9302 23.8227 80.1854 27.2363Z" fill="black" stroke="black" stroke-width="0.155164"/>
<path d="M54.1954 60.6743C49.4784 52.6679 49.3853 34.9429 49.9284 27.0813C52.4369 25.8141 57.9194 23.2953 59.7813 23.3573C62.1088 23.4349 61.1002 37.7876 61.1778 42.2098C61.2399 45.7475 62.807 45.1838 63.5829 44.4597C66.7482 40.1151 67.8499 38.0979 69.867 38.0979C71.8841 38.0979 73.5909 49.4508 73.4358 53.0713C68.5326 57.54 58.5659 60.0019 54.1954 60.6743Z" fill="#FFFF00" stroke="black" stroke-width="0.775821"/>
<path d="M32.0846 66.1049C30.0985 63.6843 29.2916 37.3219 29.1365 24.4433C36.8947 22.9537 45.9718 25.6846 49.5406 27.2362C48.3613 39.5873 51.8939 54.8296 53.8076 60.9069C49.9595 67.2376 37.7222 67.01 32.0846 66.1049Z" fill="#FFFF00" stroke="black" stroke-width="0.775821"/>
<path d="M39.4549 50.5887C37.2205 50.7128 37.386 44.2269 37.748 40.9685C39.1755 39.9754 40.7737 40.5547 41.3944 40.9685C42.3875 42.396 42.7909 47.7698 42.8685 50.2783C42.6616 50.3301 41.6892 50.4645 39.4549 50.5887Z" fill="black" stroke="black" stroke-width="0.155164"/>
<path d="M28.7485 24.3657V41.0459C26.3176 41.0459 21.704 41.9148 22.6971 45.3905C23.6281 50.1075 27.533 49.3213 29.3692 48.3386L30.7656 65.4842C24.8073 66.8497 17.9904 61.3983 15.3268 58.5019C12.0166 54.1314 6.71518 42.9234 11.9908 33.0549C17.2664 23.1865 25.3608 23.1503 28.7485 24.3657Z" fill="#FFFF00" stroke="black" stroke-width="0.775821"/>
</svg>
